HIERARCHY
ROOT joint_Root
{
	OFFSET 0.0 0.0 0.0
	CHANNELS 6 Xposition Yposition Zposition Zrotation Xrotation Yrotation 
	JOINT Hips
	{
		OFFSET -17.1583 93.1646 452.98
		CHANNELS 6 Xposition Yposition Zposition Zrotation Xrotation Yrotation 
		JOINT Spine
		{
			OFFSET 15.7357 0.0 0.0
			CHANNELS 6 Xposition Yposition Zposition Zrotation Xrotation Yrotation 
			JOINT Chest
			{
				OFFSET 8.98455 -0.406207 0.0
				CHANNELS 6 Xposition Yposition Zposition Zrotation Xrotation Yrotation 
				JOINT Neck
				{
					OFFSET 16.3773 0.0 0.0
					CHANNELS 6 Xposition Yposition Zposition Zrotation Xrotation Yrotation 
					JOINT Head
					{
						OFFSET 6.45672 0.0 0.0
						CHANNELS 6 Xposition Yposition Zposition Zrotation Xrotation Yrotation 
						End Site
						{
							OFFSET 0.0 0.0 0.0
						}
					}
				}
				JOINT Shoulder_L
				{
					OFFSET 12.9942 -0.242716 4.98039
					CHANNELS 6 Xposition Yposition Zposition Zrotation Xrotation Yrotation 
					JOINT UpperArm_L
					{
						OFFSET 5.34809 0.0 0.0
						CHANNELS 6 Xposition Yposition Zposition Zrotation Xrotation Yrotation 
						JOINT LowerArm_L
						{
							OFFSET 24.3286 1.87007e-05 0.0
							CHANNELS 6 Xposition Yposition Zposition Zrotation Xrotation Yrotation 
							JOINT Hand_L
							{
								OFFSET 22.2916 0.0 0.0
								CHANNELS 6 Xposition Yposition Zposition Zrotation Xrotation Yrotation 
								End Site
								{
									OFFSET 0.0 0.0 0.0
								}
							}
						}
					}
				}
				JOINT Shoulder_R
				{
					OFFSET 12.9945 -0.242716 -4.98039
					CHANNELS 6 Xposition Yposition Zposition Zrotation Xrotation Yrotation 
					JOINT UpperArm_R
					{
						OFFSET -5.34813 0.0 0.0
						CHANNELS 6 Xposition Yposition Zposition Zrotation Xrotation Yrotation 
						JOINT LowerArm_R
						{
							OFFSET -24.3289 0.000322201 0.0
							CHANNELS 6 Xposition Yposition Zposition Zrotation Xrotation Yrotation 
							JOINT Hand_R
							{
								OFFSET -22.2915 -0.000108084 0.0
								CHANNELS 6 Xposition Yposition Zposition Zrotation Xrotation Yrotation 
								End Site
								{
									OFFSET 0.0 0.0 0.0
								}
							}
						}
					}
				}
			}
		}
		JOINT UpperLeg_L
		{
			OFFSET -2.19248 -6.46944 0.0
			CHANNELS 6 Xposition Yposition Zposition Zrotation Xrotation Yrotation 
			JOINT LowerLeg_L
			{
				OFFSET 39.0811 0.0 -1.23785e-05
				CHANNELS 6 Xposition Yposition Zposition Zrotation Xrotation Yrotation 
				JOINT Foot_L
				{
					OFFSET 40.9854 0.0 -1.26872e-05
					CHANNELS 6 Xposition Yposition Zposition Zrotation Xrotation Yrotation 
					JOINT Toes_L
					{
						OFFSET 11.7543 0.0 0.0
						CHANNELS 6 Xposition Yposition Zposition Zrotation Xrotation Yrotation 
						End Site
						{
							OFFSET 0.0 0.0 0.0
						}
					}
				}
			}
		}
		JOINT UpperLeg_R
		{
			OFFSET -2.19251 6.46944 0.0
			CHANNELS 6 Xposition Yposition Zposition Zrotation Xrotation Yrotation 
			JOINT LowerLeg_R
			{
				OFFSET -39.0811 -0.00228153 -0.0401928
				CHANNELS 6 Xposition Yposition Zposition Zrotation Xrotation Yrotation 
				JOINT Foot_R
				{
					OFFSET -40.9854 0.0 0.0
					CHANNELS 6 Xposition Yposition Zposition Zrotation Xrotation Yrotation 
					JOINT Toes_R
					{
						OFFSET -11.7543 0.0 0.0
						CHANNELS 6 Xposition Yposition Zposition Zrotation Xrotation Yrotation 
						End Site
						{
							OFFSET 0.0 0.0 0.0
						}
					}
				}
			}
		}
	}
}
MOTION
Frames:	6
Frame Time:	0.0333333
0.000000 0.000000 0.000000 0.000000 0.000000 -0.000000 171.251000 89.750300 196.957000 92.240900 -57.661900 -4.010060 15.735700 0.000005 -0.000001 43.429700 86.256500 -43.504800 8.984550 -0.406207 -0.000000 -2.627510 -5.428500 -0.274984 16.377300 -0.000001 -0.000001 -6.218410 -6.195000 -4.145960 6.456720 -0.000001 -0.000000 4.651430 -9.126060 3.134370 12.994200 -0.242716 4.980390 -91.286700 4.228060 -73.056500 5.348090 -0.000007 -0.000001 -36.766300 -36.014800 -5.784200 24.328600 0.000019 0.000005 10.267900 7.637730 -53.732800 22.291600 -0.000001 0.000005 17.808900 4.931330 8.746100 12.994500 -0.242716 -4.980390 89.731000 0.845625 -72.355300 -5.348130 -0.000001 -0.000004 -38.474400 -24.609800 20.582300 -24.328900 0.000322 -0.000009 0.063968 0.670026 -5.538620 -22.291500 -0.000108 -0.000004 26.453600 5.136060 4.273600 -2.192480 -6.469440 -0.000000 -170.619000 -18.306400 9.059760 39.081100 -0.000007 -0.000012 -0.069975 0.232676 16.738000 40.985400 -0.000006 -0.000013 -18.468800 0.943329 -63.392500 11.754300 -0.000000 0.000003 -0.010349 -0.106234 -20.905600 -2.192510 6.469440 -0.000001 -172.514000 -1.091890 148.182000 -39.081100 -0.002282 -0.040193 -0.005917 0.036243 14.314800 -40.985400 0.000008 0.000006 0.102851 -11.801600 -65.092500 -11.754300 -0.000006 -0.000006 0.000940 0.149985 -10.490700
0.000000 0.000000 0.000000 0.000000 0.000000 -0.000000 167.792000 89.159300 199.180000 91.708600 -57.906600 -5.108840 15.735700 0.000005 -0.000001 39.833400 86.344300 -39.502200 8.984550 -0.406207 -0.000000 -3.073110 -5.643330 0.511478 16.377300 -0.000001 -0.000001 -7.055730 -6.066100 -4.355170 6.456720 -0.000001 -0.000000 3.775580 -8.997300 1.916060 12.994200 -0.242716 4.980390 -91.350100 4.502190 -73.288500 5.348090 -0.000007 -0.000001 -39.842300 -35.914400 -4.874370 24.328600 0.000019 0.000005 10.673000 7.905150 -53.879400 22.291600 -0.000001 0.000005 18.266600 4.907030 9.237600 12.994500 -0.242716 -4.980390 89.816100 0.581570 -72.450700 -5.348130 -0.000001 -0.000004 -40.149400 -25.224100 20.808300 -24.328900 0.000322 -0.000009 0.007383 0.120102 -3.980020 -22.291500 -0.000108 -0.000004 26.353700 5.095460 5.217640 -2.192480 -6.469440 -0.000000 -169.811000 -18.420400 9.056730 39.081100 -0.000007 -0.000012 -0.081031 0.223907 19.895000 40.985400 -0.000006 -0.000013 -16.787900 0.437955 -61.462500 11.754300 -0.000000 0.000003 -0.033710 -0.234004 -26.173100 -2.192510 6.469440 -0.000001 -171.265000 0.999195 147.685000 -39.081100 -0.002282 -0.040193 -0.008404 0.047733 13.813200 -40.985400 0.000008 0.000006 -0.001438 -13.841000 -66.313300 -11.754300 -0.000006 -0.000006 0.000892 0.150997 -10.449600
0.000000 0.000000 0.000000 0.000000 0.000000 -0.000000 163.909000 88.663600 201.366000 90.465400 -58.351400 -7.758770 15.735700 0.000005 -0.000001 32.149100 86.855600 -31.236600 8.984550 -0.406207 -0.000000 -4.385930 -5.416940 1.619700 16.377300 -0.000001 -0.000001 -7.893960 -5.862550 -4.727450 6.456720 -0.000001 -0.000000 3.286820 -8.951670 0.414520 12.994200 -0.242716 4.980390 -91.625200 5.405130 -73.237200 5.348090 -0.000007 -0.000001 -42.987800 -34.004200 -3.631900 24.328600 0.000019 0.000005 10.860700 8.264280 -53.159600 22.291600 -0.000001 0.000005 17.605400 4.895640 9.464960 12.994500 -0.242716 -4.980390 89.765200 0.738810 -72.371400 -5.348130 -0.000001 -0.000004 -42.782000 -24.869500 20.697300 -24.328900 0.000322 -0.000009 -0.038330 -0.762817 -2.801890 -22.291500 -0.000108 -0.000004 24.165500 5.085770 5.437660 -2.192480 -6.469440 -0.000000 -169.026000 -18.208400 7.949070 39.081100 -0.000007 -0.000012 -0.058286 0.136880 23.065400 40.985400 -0.000006 -0.000013 -15.615100 -1.093870 -58.362200 11.754300 -0.000000 0.000003 -0.070698 -0.365087 -31.696900 -2.192510 6.469440 -0.000001 -168.370000 3.507060 144.020000 -39.081100 -0.002282 -0.040193 0.002317 0.002884 19.231000 -40.985400 0.000008 0.000006 6.758350 -15.616400 -61.087400 -11.754300 -0.000006 -0.000006 0.001875 0.125467 -11.485300
0.000000 0.000000 0.000000 0.000000 0.000000 -0.000000 159.490000 88.059700 203.720000 88.867000 -58.740500 -9.636570 15.735700 0.000005 -0.000001 27.606300 87.262300 -26.044700 8.984550 -0.406207 -0.000000 -5.169040 -5.022720 2.900570 16.377300 -0.000001 -0.000001 -8.413920 -5.496370 -5.134100 6.456720 -0.000001 -0.000000 3.004240 -8.891580 -0.996955 12.994200 -0.242716 4.980390 -91.979000 6.526170 -73.090200 5.348090 -0.000007 -0.000001 -46.475100 -30.646900 -1.971750 24.328600 0.000019 0.000005 10.919500 8.934060 -51.167000 22.291600 -0.000001 0.000005 16.323500 4.898810 9.401060 12.994500 -0.242716 -4.980390 89.629500 1.161020 -72.301000 -5.348130 -0.000001 -0.000004 -46.268300 -24.044100 20.185600 -24.328900 0.000322 -0.000009 -0.061816 -1.474230 -2.361000 -22.291500 -0.000108 -0.000004 21.253600 5.083970 5.478670 -2.192480 -6.469440 -0.000000 -168.085000 -16.601400 7.322200 39.081100 -0.000007 -0.000012 -0.008247 0.016099 27.124900 40.985400 -0.000006 -0.000013 -14.139400 -3.956450 -53.811900 11.754300 -0.000000 0.000003 -0.126892 -0.506917 -37.884900 -2.192510 6.469440 -0.000001 -165.938000 5.804660 141.564000 -39.081100 -0.002282 -0.040193 0.080745 -0.148793 27.494200 -40.985400 0.000008 0.000006 9.890010 -13.397400 -60.579000 -11.754300 -0.000006 -0.000006 0.001085 0.146800 -10.619900
0.000000 0.000000 0.000000 0.000000 0.000000 -0.000000 154.808000 87.448300 206.080000 86.718900 -60.156100 -10.104300 15.735700 0.000005 -0.000001 38.138400 87.355700 -36.010100 8.984550 -0.406207 -0.000000 -4.421580 -4.382450 4.091650 16.377300 -0.000001 -0.000001 -8.627650 -4.888020 -4.814580 6.456720 -0.000001 -0.000000 2.511080 -8.067030 -1.866740 12.994200 -0.242716 4.980390 -92.228400 7.293040 -72.958100 5.348090 -0.000007 -0.000001 -50.610400 -26.841900 0.225821 24.328600 0.000019 0.000005 10.688900 9.972090 -47.465200 22.291600 -0.000001 0.000005 15.157500 4.911980 9.137920 12.994500 -0.242716 -4.980390 89.413500 1.867330 -72.559000 -5.348130 -0.000001 -0.000004 -51.246800 -23.039700 17.675500 -24.328900 0.000322 -0.000009 -0.022787 -0.589190 -2.111390 -22.291500 -0.000108 -0.000004 17.615400 5.077020 5.636490 -2.192480 -6.469440 -0.000000 -167.035000 -14.674300 7.493080 39.081100 -0.000007 -0.000012 0.077434 -0.119631 32.913600 40.985400 -0.000006 -0.000013 -10.408000 -6.845410 -47.068700 11.754300 -0.000000 0.000003 -0.150003 -0.554757 -40.039100 -2.192510 6.469440 -0.000001 -164.692000 6.925570 142.489000 -39.081100 -0.002282 -0.040193 0.126194 -0.174713 35.124800 -40.985400 0.000008 0.000006 9.091590 -11.104400 -64.771600 -11.754300 -0.000006 -0.000006 -0.001554 0.190654 -8.838840
0.000000 0.000000 0.000000 0.000000 0.000000 -0.000000 150.144000 86.949500 208.235000 85.450200 -61.555800 -8.812560 15.735700 0.000005 -0.000001 50.440900 86.902200 -48.074600 8.984550 -0.406207 -0.000000 -2.902360 -4.164410 4.629390 16.377300 -0.000001 -0.000001 -8.023280 -4.269760 -4.101520 6.456720 -0.000001 -0.000000 2.080630 -6.923990 -1.877330 12.994200 -0.242716 4.980390 -92.418000 7.735880 -72.583300 5.348090 -0.000007 -0.000001 -54.719100 -20.507400 1.483940 24.328600 0.000019 0.000005 8.884300 10.674100 -40.159600 22.291600 -0.000001 0.000005 12.878200 4.925280 8.868000 12.994500 -0.242716 -4.980390 89.135500 2.755530 -72.574500 -5.348130 -0.000001 -0.000004 -57.947800 -19.493800 12.820200 -24.328900 0.000322 -0.000009 0.039339 1.188730 -1.943110 -22.291500 -0.000108 -0.000004 13.200300 5.053560 6.161110 -2.192480 -6.469440 -0.000000 -166.583000 -12.072000 6.664280 39.081100 -0.000007 -0.000012 0.191634 -0.224862 40.438500 40.985400 -0.000006 -0.000013 -6.514640 -8.055500 -37.306000 11.754300 -0.000000 0.000003 -0.075846 -0.380174 -32.343200 -2.192510 6.469440 -0.000001 -164.263000 8.210360 146.074000 -39.081100 -0.002282 -0.040193 0.228522 -0.264772 40.388400 -40.985400 0.000008 0.000006 8.945600 -9.721370 -70.619800 -11.754300 -0.000006 -0.000006 -0.002939 0.207580 -8.150390
